<svg xmlns="http://www.w3.org/2000/svg" viewBox="0 0 311048 333333" shape-rendering="geometricPrecision" text-rendering="geometricPrecision" image-rendering="optimizeQuality" fill-rule="evenodd" clip-rule="evenodd"><path d="M61661 120854c-2486 14340 9893 25291 17687 24547-43-3467 21-6915 0-10320-9573-2795-10877-19739-47-23763v4377c14-777 30-1548 47-2316v31881c0 18899 6970 31698 18465 45048-11347 11414-17297 14060-29403 19439-20069 8915-34480 16423-48143 34884C10529 257789 3885 275772 0 294233c14167 17147 41261 27979 73763 33976-2198-7558-3381-15548-3381-23815 0-47023 38119-85142 85141-85142s85141 38119 85141 85142c0 7579-996 14925-2854 21919 41145-7418 71314-19304 73237-32311-4678-19779-12654-37870-23230-51020-10596-13173-23780-23378-38854-31413-95-50-191-95-289-133l4-8c-3024-1194-6316-2430-9211-3516-11787-4424-16073-6033-27003-16729 11949-13461 19228-26607 19228-45920v-34379c44 1582 81 3188 111 4814v-4378c10829 4024 9462 20971-111 23768-22 3405 35 6849-7 10314 7794 745 20243-10206 17757-24545 43396-167184-233264-154983-187783-2zm30040 210121c8349 1052 16941 1831 25667 2358-3451-3871-6329-8380-8862-13405-5906-9515-22714-4618-17350 9838 178 405 361 808 544 1209zm103532 999c8655-781 17121-1756 25287-2901 4581-13917-11781-18506-17592-9145-2241 4448-4754 8491-7695 12046zm-40080-27355c2433 0 4404 1972 4404 4404 0 2433-1972 4405-4404 4405s-4404-1972-4404-4405c0-2432 1972-4404 4404-4404zm41-11535c8779 0 15895 7116 15895 15895s-7117 15895-15895 15895-15895-7116-15895-15895c0-8778 7117-15895 15895-15895zm-64328-12063c6163-17061 18742-31460 34509-38814 21665-10104 47957-10734 70237 5745 13135 9715 17935 17683 24481 31808 4968 12520 887 16586-15062 9559-32961-16310-66289-15581-99935 0-12419 8109-19385 1340-14230-8298zm90270-198566c-1794-7-3245-1469-3239-3264 7-1796 1469-3245 3264-3239 5383 24 10304 1034 14725 3111 4461 2095 8368 5247 11674 9532 1099 1422 836 3466-586 4564s-3467 836-4566-587c-2665-3453-5767-5972-9277-7620-3550-1668-7561-2480-11996-2500l1 1zm-40674 98928c-1364-723-1882-2417-1159-3781s2417-1883 3781-1159c4304 2285 8539 3449 12706 3459 4161 8 8333-1127 12511-3438 1352-741 3050-248 3793 1105 741 1352 247 3049-1105 3791-5004 2767-10071 4126-15199 4114-5127-12-10236-1387-15328-4092zm40910-13276c-2797 949-5676 1752-8642 2396v-2c-3048 844-5861 1356-8349 1408-2838 60-5287-474-7234-1772-598-396-1129-823-1596-1272-468 451-1000 876-1596 1272-1948 1297-4396 1831-7234 1772-2487-52-5302-564-8348-1408v2c-2965-644-5844-1447-8642-2396-2783-943-5498-2037-8154-3269-1281-594-1796-2033-1148-3211 385-704 1098-1156 1883-1280v-2c1417-224 2552-381 3610-527l86-10c3419-472 6050-843 9252-2127 901-361 1779-766 2672-1179 5117-2367 10716-4955 16301-515 482 383 922 785 1319 1204 396-419 837-822 1318-1204 5585-4441 11185-1852 16302 515 894 413 1769 818 2671 1179 3204 1285 5833 1655 9252 2127l88 10c1058 146 2193 304 3611 527l-1 2c784 124 1496 577 1883 1280 646 1180 131 2618-1151 3211-2654 1231-5371 2326-8153 3269h1zm-32565-23833c-1126-941-1275-2617-333-3744 942-1126 2619-1274 3743-332 1326 1112 2598 1701 3816 1716 1230 16 2559-543 3998-1725 1131-931 2802-768 3733 364 930 1131 767 2802-364 3733-2449 2016-4925 2964-7428 2934-2515-32-4900-1043-7166-2944h1v-1zm-36894-42482c-1067 415-2230-230-2595-1443-366-1212 204-2534 1269-2948 4122-1610 8260-2356 12408-2326 4124 29 8238 832 12342 2317 1071 385 1664 1686 1326 2903s-1483 1891-2554 1506c-1362-493-2724-902-4084-1225 137 489 209 1004 209 1539 0 3160-2561 5724-5724 5724-3162 0-5723-2564-5723-5724 0-778 156-1519 436-2194-2431 300-4867 917-7308 1870l-2 1zm66488-1713c-242 632-417 96-417 2035 0 1938 2562 5725 5725 5725 3162 0 5724-2564 5724-5725 0-909-211-1767-589-2529 2499 270 5020 820 7561 1650 1085 350 2214-365 2524-1597 308-1233-321-2517-1406-2869-4134-1352-8259-2017-12375-2013-4109 5-8184 684-12224 2022-1080 355-1701 1640-1389 2868 313 1228 1446 1935 2525 1580 1429-474 2905-857 4341-1149v2-1zm-48588-23477c1795-78 3314 1315 3392 3111s-1315 3314-3111 3392c-4991 231-9243 1239-12807 2967-3469 1681-6305 4068-8556 7099-1071 1444-3109 1746-4553 678-1442-1071-1745-3109-675-4552 2882-3884 6513-6936 10953-9089 4344-2106 9444-3332 15357-3606h1-1zm25706-43043c-36400 0-66200 29799-66200 66200v45500c0 18200 7449 30202 19450 42205 12000 12000 28549 19450 46750 19450 18199 0 34748-7450 46749-19450 12001-12002 19450-24005 19450-42205V99759c0-36400-29799-66200-66199-66200z"/></svg>