<svg xmlns="http://www.w3.org/2000/svg" viewBox="0 0 1333.33 1079.3" shape-rendering="geometricPrecision" text-rendering="geometricPrecision" image-rendering="optimizeQuality" fill-rule="evenodd" clip-rule="evenodd"><path d="M902.39 208.46l-.27.81c-56.54-10.53-138.12-16.04-224.19-15.05-86.99 1-179 8.55-254.81 24.14l-.06-.31C356.94-93.03 989.68-48.6 902.4 208.46h-.01zm-595.65 821.59c-49.44 37.53-104.92 67.31-186.41 36.31C67.49 1046.33 24.19 999.99 0 941.6c210.49 95.4 285.86-178.42 36.61-186.66 76.08-91.6 188.28-90.86 278.94-23.69 42.86 31.69 66.96 47.61 91.63 54.56 13.5 4 27.06 4.76 44.2 4.78 57.9.2 361.44-6.41 422.89-7.7 115.69-2.26 174.19-180.14 338.73-117.45 52.85 20.03 96.14 66.37 120.33 124.75-210.49-95.39-285.85 178.42-36.6 186.67-76.09 91.6-188.28 90.86-278.94 23.69-39.73-29.54-64.82-64.28-143.19-62.09-54.36 2.32-357.28 5.85-411.77 9.51-21.65 1.3-36.04 3.43-49.71 8.78-24.73 9.43-47.15 28.67-105.61 73.25l-.76.04zM534.8 545.16c-38.46 26.98-78.62 37.01-117.88 44.22l46.38 131.46c94.51-1.11 314.15-5.78 404.04-7.68l22.14-.46 34.17-122.24c-34.91-3.56-67.55-6.33-93.15-19.78-11.55-7.25-21.72-17.27-31.02-30l-1.62-26.22c9.07-7.44 17.81-16.19 25.25-25.9 16.83-21.04 23.31-42.73 31.4-70.24 1.62-5.83 3.24-11.65 5.18-17.48 15.87-1.62 29.79-19.42 38.2-41.43 4.53-12.3 8.09-26.22 9.06-38.52 1.3-12.95 0-24.93-4.53-33.02-3.56-6.47-9.06-10.68-16.51-11.32-.55-6.45 2.37-20.17 6.31-34.74-53.53-9.63-131.3-14.62-214.01-13.67-84.93.97-174.6 8.31-248.13 23.46l7.19 34.33c-5.51 9.06-6.8 23.31-5.19 38.52 1.62 14.89 6.15 30.43 12.63 43.37 8.42 16.51 20.39 28.17 34.31 28.17 1.3 3.88 2.91 8.09 4.21 12.3 11.33 33.34 19.74 58.59 40.14 82.54 5.83 7.12 12.31 13.59 19.1 19.42l-1.63 29.45a157.51 157.51 0 01-6.04 5.47zM352.04 601.4c-29.98 6.81-58.43 16.94-84 37.62 14.19 7.71 28.08 16.59 41.57 26.59 22.28 16.48 39.61 28.8 54.29 37.74 8.54 5.2 15.85 9.01 22.6 11.67-8.24-46.98-28.49-91.35-34.46-113.63zm691.78 20.68c-17.01-10.03-34.81-16.6-52.81-21.15-3.89 15.99-12.39 44.61-19.05 76.52 9.25-6.86 18.57-14.26 27.99-21.73 14.34-11.37 28.84-22.87 43.87-33.65zm-445.5-509.7h136.7c3.21 0 5.84 2.63 5.84 5.84v31.55c0 3.22-2.63 5.84-5.84 5.84h-136.7c-3.22 0-5.84-2.63-5.84-5.84v-31.55c0-3.21 2.63-5.84 5.84-5.84zm179.06 412.44c-36.52 24.35-58.82 37.75-106.09 36.57-45.99-.69-69.99-16.24-106.74-39.49-2.73 153.52 216.63 162.64 212.83 2.91zm54.77-111.35c1.94-6.8 4.21-13.92 6.8-22.33.97-3.56 4.53-6.15 8.09-5.5 10.68 1.94 21.36-13.6 28.81-32.37 4.21-11.33 7.44-23.63 8.42-34.63.98-10.36 0-19.43-2.91-24.93-2.88-5.35-10.88-2.23-16.83-7.44-30.65 81.31-297.96 118.1-407.38 6.15-3.88 6.15-4.53 17.15-3.23 29.45 1.61 12.95 5.5 27.2 11.33 38.53 6.8 13.27 15.54 22.33 24.27 20.07 3.56-.97 7.45.97 8.74 4.53 2.58 7.12 4.2 12.63 6.15 18.13 56.69 166.47 272.13 179.5 327.76 10.36h-.01z" fill="#050505"/></svg>